<svg width="20" height="20" viewBox="0 0 20 20" fill="none" xmlns="http://www.w3.org/2000/svg">
<path d="M12.1106 18.0684C12.1423 18.1473 12.1973 18.2146 12.2683 18.2614C12.3394 18.3081 12.423 18.3319 12.5079 18.3298C12.5929 18.3276 12.6752 18.2995 12.7437 18.2492C12.8122 18.1989 12.8638 18.1288 12.8913 18.0484L18.307 2.21795C18.3337 2.14413 18.3388 2.06424 18.3217 1.98763C18.3046 1.91101 18.2661 1.84085 18.2106 1.78535C18.1551 1.72984 18.0849 1.6913 18.0083 1.67421C17.9317 1.65713 17.8518 1.66222 17.778 1.68888L1.94747 7.10458C1.86706 7.13215 1.79702 7.18366 1.74673 7.25219C1.69645 7.32072 1.66833 7.403 1.66615 7.48797C1.66398 7.57295 1.68785 7.65655 1.73456 7.72757C1.78127 7.79859 1.84858 7.85361 1.92747 7.88527L8.53462 10.5348C8.74349 10.6184 8.93326 10.7435 9.09249 10.9024C9.25172 11.0614 9.37712 11.2509 9.46112 11.4596L12.1106 18.0684Z" stroke="white" stroke-width="1.66637" stroke-linecap="round" stroke-linejoin="round"/>
<path d="M18.2088 1.78882L9.09375 10.903" stroke="white" stroke-width="1.66637" stroke-linecap="round" stroke-linejoin="round"/>
</svg>
