<svg width="20" height="20" viewBox="0 0 20 20" fill="none" xmlns="http://www.w3.org/2000/svg">
<g clip-path="url(#clip0_281_34)">
<path d="M1.71802 10.2881C1.64858 10.1011 1.64858 9.89532 1.71802 9.70825C2.39432 8.06843 3.54229 6.66634 5.0164 5.67974C6.49051 4.69313 8.22437 4.16644 9.99818 4.16644C11.772 4.16644 13.5059 4.69313 14.98 5.67974C16.4541 6.66634 17.602 8.06843 18.2783 9.70825C18.3478 9.89532 18.3478 10.1011 18.2783 10.2881C17.602 11.928 16.4541 13.3301 14.98 14.3167C13.5059 15.3033 11.772 15.83 9.99818 15.83C8.22437 15.83 6.49051 15.3033 5.0164 14.3167C3.54229 13.3301 2.39432 11.928 1.71802 10.2881Z" stroke="#99A1AF" stroke-width="1.66636" stroke-linecap="round" stroke-linejoin="round"/>
<path d="M9.99818 12.4977C11.3786 12.4977 12.4977 11.3787 12.4977 9.9982C12.4977 8.61774 11.3786 7.49866 9.99818 7.49866C8.61772 7.49866 7.49863 8.61774 7.49863 9.9982C7.49863 11.3787 8.61772 12.4977 9.99818 12.4977Z" stroke="#99A1AF" stroke-width="1.66636" stroke-linecap="round" stroke-linejoin="round"/>
</g>
<defs>
<clipPath id="clip0_281_34">
<rect width="19.9964" height="19.9964" fill="white"/>
</clipPath>
</defs>
</svg>
