<svg width="12" height="12" viewBox="0 0 12 12" fill="none" xmlns="http://www.w3.org/2000/svg">
<path d="M5.99609 9.99341H10.4931" stroke="#DAB2FF" stroke-width="0.999342" stroke-linecap="round" stroke-linejoin="round"/>
<path d="M8.1831 1.80969C8.38201 1.61077 8.6518 1.49902 8.9331 1.49902C9.21441 1.49902 9.4842 1.61077 9.68311 1.80969C9.88202 2.0086 9.99377 2.27839 9.99377 2.55969C9.99377 2.841 9.88202 3.11078 9.68311 3.3097L3.68206 9.31124C3.56319 9.43011 3.41625 9.51708 3.25484 9.56408L1.81979 9.9828C1.77679 9.99534 1.73122 9.99609 1.68783 9.98498C1.64444 9.97386 1.60484 9.95129 1.57318 9.91962C1.54151 9.88795 1.51893 9.84835 1.50782 9.80496C1.4967 9.76158 1.49745 9.716 1.50999 9.67301L1.92872 8.23795C1.9758 8.07672 2.06275 7.92997 2.18155 7.81123L8.1831 1.80969Z" stroke="#DAB2FF" stroke-width="0.999342" stroke-linecap="round" stroke-linejoin="round"/>
</svg>
